<?xml version="1.0" standalone="no"?><!DOCTYPE svg PUBLIC "-//W3C//DTD SVG 1.1//EN" "http://www.w3.org/Graphics/SVG/1.1/DTD/svg11.dtd"><svg t="1564969747482" class="icon" viewBox="0 0 1621 1024" version="1.1" xmlns="http://www.w3.org/2000/svg" p-id="1999" xmlns:xlink="http://www.w3.org/1999/xlink" width="316.6015625" height="200"><defs><style type="text/css"></style></defs><path d="M358.997333 15.018667h161.962667L879.957333 947.2h-152.746666L639.744 706.986667H238.933333L151.466667 947.2H0L358.997333 15.018667z m-76.970666 574.464h314.624L442.624 167.765333h-5.290667l-155.306666 421.717334z m980.48-335.530667c99.242667 0 172.373333 24.746667 219.306666 74.410667 40.533333 43.093333 61.44 105.813333 61.44 187.989333V947.2h-128V851.882667c-26.112 33.962667-58.709333 61.44-97.877333 80.981333-44.373333 20.906667-96.682667 32.597333-156.672 32.597333-70.570667 0-125.44-18.261333-164.522667-53.504-43.093333-35.242667-64-80.981333-64-137.130666 0-75.690667 30.037333-134.4 90.112-174.933334 54.869333-39.168 133.12-58.709333 232.362667-61.354666l151.466667-3.925334v-27.392c0-94.037333-50.944-140.970667-152.746667-140.970666-43.093333 0-78.336 7.765333-104.448 23.466666-31.317333 18.261333-50.944 45.653333-58.794667 83.626667l-137.045333-11.861333c14.336-73.045333 50.944-127.914667 108.373333-161.877334 49.578667-31.317333 117.504-45.653333 201.045334-45.653333z m143.616 381.184l-142.336 3.925333c-126.634667 2.56-189.269333 47.018667-189.269334 130.56 0 26.112 10.410667 47.018667 32.597334 64 20.906667 16.981333 49.664 26.112 84.906666 26.112 58.709333 0 108.373333-18.261333 150.186667-53.504 41.728-35.328 64-79.701333 64-131.925333v-39.168z" fill="#969696" p-id="2000"></path></svg>